# xmcd
#
# Track frame offsets:
# 150
# 14966
# 30641
# 39941
#
# Disc length: 740 seconds
#
# Revision: 1
# Processed by: cddbd v1.5.2PL0 Copyright (c) Steve Scherf et al.
# Submitted via: CedeCatalogueitor 2.6.0.6 http://personales.ya.com/cdcatalogueitor
#
DISCID=2b02e204
DTITLE=Arctic Monkeys - Cornerstone
DYEAR=1900
DGENRE=
TTITLE0=Cornerstone
TTITLE1=Catapult
TTITLE2=Sketchead
TTITLE3=Fright Lined Dining Room
EXTD=
EXTT0=
EXTT1=
EXTT2=
EXTT3=
PLAYORDER=
